<svg width="24" height="25" viewBox="0 0 24 25" fill="none" xmlns="http://www.w3.org/2000/svg">
<path d="M20.0306 16.0306C19.961 16.1003 19.8782 16.1557 19.7872 16.1934C19.6961 16.2311 19.5986 16.2506 19.5 16.2506C19.4014 16.2506 19.3038 16.2311 19.2128 16.1934C19.1217 16.1557 19.039 16.1003 18.9694 16.0306L12 9.06029L5.03061 16.0306C4.88988 16.1713 4.69901 16.2504 4.49999 16.2504C4.30097 16.2504 4.1101 16.1713 3.96936 16.0306C3.82863 15.8899 3.74957 15.699 3.74957 15.5C3.74957 15.301 3.82863 15.1101 3.96936 14.9694L11.4694 7.46935C11.539 7.39962 11.6217 7.3443 11.7128 7.30656C11.8038 7.26882 11.9014 7.24939 12 7.24939C12.0986 7.24939 12.1961 7.26882 12.2872 7.30656C12.3782 7.3443 12.461 7.39962 12.5306 7.46935L20.0306 14.9694C20.1003 15.039 20.1557 15.1217 20.1934 15.2128C20.2312 15.3038 20.2506 15.4014 20.2506 15.5C20.2506 15.5985 20.2312 15.6961 20.1934 15.7872C20.1557 15.8782 20.1003 15.9609 20.0306 16.0306Z" fill="#1F2022"/>
</svg>
