<svg width="24" height="24" viewBox="0 0 24 24" fill="none" xmlns="http://www.w3.org/2000/svg">
<path d="M21.7566 17.5088C22.2748 16.4339 22.5291 15.2509 22.4983 14.058C22.4675 12.8652 22.1525 11.6969 21.5795 10.6502C21.0065 9.60347 20.1921 8.7086 19.2038 8.0399C18.2155 7.37119 17.0819 6.94795 15.8972 6.80533C15.503 5.88879 14.9299 5.06013 14.2114 4.36785C13.493 3.67557 12.6436 3.1336 11.7131 2.77366C10.7826 2.41373 9.78957 2.24308 8.79227 2.2717C7.79497 2.30032 6.81341 2.52764 5.90506 2.94034C4.9967 3.35304 4.17982 3.94283 3.50225 4.67517C2.82468 5.40751 2.30004 6.26768 1.95905 7.20531C1.61805 8.14294 1.46757 9.13918 1.5164 10.1357C1.56523 11.1322 1.8124 12.109 2.24343 13.0088L1.56187 15.3253C1.48566 15.5839 1.48057 15.8583 1.54712 16.1196C1.61367 16.3808 1.7494 16.6193 1.94004 16.81C2.13068 17.0006 2.36918 17.1363 2.63044 17.2029C2.8917 17.2694 3.16607 17.2643 3.42468 17.1881L5.74124 16.5066C6.48509 16.864 7.28258 17.0967 8.10187 17.1956C8.49991 18.1283 9.08294 18.9705 9.81572 19.6714C10.5485 20.3723 11.4158 20.9174 12.3652 21.2736C13.3146 21.6298 14.3263 21.7898 15.3393 21.7439C16.3523 21.698 17.3455 21.4472 18.2587 21.0066L20.5753 21.6881C20.8338 21.7643 21.1081 21.7693 21.3692 21.7028C21.6304 21.6363 21.8688 21.5007 22.0594 21.3101C22.25 21.1196 22.3857 20.8813 22.4524 20.6202C22.519 20.3591 22.5141 20.0848 22.4381 19.8263L21.7566 17.5088ZM5.81249 14.9531C5.74082 14.9533 5.66952 14.9634 5.60062 14.9831L2.99999 15.75L3.76593 13.1475C3.82041 12.9595 3.79921 12.7576 3.70687 12.585C3.02841 11.3162 2.8285 9.84579 3.14359 8.44189C3.45867 7.03798 4.26777 5.79404 5.42338 4.93684C6.57899 4.07964 8.00417 3.66625 9.43911 3.77205C10.874 3.87784 12.2232 4.49576 13.2406 5.51316C14.258 6.53057 14.8759 7.87971 14.9817 9.31465C15.0875 10.7496 14.6741 12.1748 13.8169 13.3304C12.9597 14.486 11.7158 15.2951 10.3119 15.6102C8.90796 15.9253 7.43757 15.7253 6.16874 15.0469C6.05963 14.9865 5.93719 14.9543 5.81249 14.9531ZM20.2303 17.6466L21 20.25L18.3975 19.4841C18.2095 19.4296 18.0076 19.4508 17.835 19.5431C16.4539 20.2806 14.8394 20.4495 13.3356 20.0138C11.8318 19.578 10.5576 18.5722 9.78468 17.2106C10.8116 17.1035 11.8053 16.7852 12.7034 16.2759C13.6015 15.7665 14.3847 15.0771 15.0038 14.2508C15.6229 13.4245 16.0645 12.4792 16.301 11.4741C16.5375 10.4691 16.5638 9.42599 16.3781 8.41033C17.2729 8.62123 18.1072 9.03491 18.8167 9.61942C19.5262 10.2039 20.0919 10.9437 20.4701 11.7815C20.8483 12.6193 21.029 13.5329 20.9982 14.4516C20.9673 15.3704 20.7258 16.2697 20.2922 17.0803C20.1988 17.254 20.1776 17.4574 20.2331 17.6466H20.2303Z" fill="#1F2022"/>
</svg>
