<svg width="28" height="28" viewBox="0 0 28 28" fill="none" xmlns="http://www.w3.org/2000/svg">
<path d="M14 1.25C6.95837 1.25 1.25 6.95837 1.25 14C1.25 21.0416 6.95837 26.75 14 26.75C21.0416 26.75 26.75 21.0416 26.75 14C26.75 6.95837 21.0416 1.25 14 1.25Z" stroke="#1F2022" stroke-width="1.5"/>
<path d="M9.1263 19.112C8.09964 19.112 7.2363 18.902 6.5363 18.482C5.8363 18.0527 5.30897 17.46 4.9543 16.704C4.59964 15.948 4.4223 15.0707 4.4223 14.072C4.4223 13.0733 4.6043 12.1913 4.9683 11.426C5.3323 10.6607 5.8643 10.0633 6.5643 9.634C7.2643 9.19533 8.1183 8.976 9.1263 8.976C9.87297 8.976 10.531 9.102 11.1003 9.354C11.6696 9.606 12.1316 9.96533 12.4863 10.432C12.8503 10.8893 13.0836 11.454 13.1863 12.126H11.4923C11.3616 11.65 11.0956 11.2767 10.6943 11.006C10.293 10.7353 9.7703 10.6 9.1263 10.6C8.42631 10.6 7.86164 10.7633 7.43231 11.09C7.00297 11.4167 6.6903 11.8367 6.4943 12.35C6.30764 12.8633 6.2143 13.414 6.2143 14.002C6.2143 14.6087 6.3123 15.178 6.5083 15.71C6.71364 16.242 7.03564 16.6713 7.4743 16.998C7.91297 17.3247 8.47764 17.488 9.1683 17.488C9.59764 17.488 9.97097 17.4273 10.2883 17.306C10.615 17.1847 10.8856 17.012 11.1003 16.788C11.3243 16.5547 11.4783 16.284 11.5623 15.976H13.3403C13.2283 16.6387 12.9763 17.2033 12.5843 17.67C12.2016 18.1367 11.7116 18.496 11.1143 18.748C10.5263 18.9907 9.86364 19.112 9.1263 19.112ZM14.9214 19V9.102H16.6714V13.33H21.2914V9.102H23.0274V19H21.2914V14.926H16.6714V19H14.9214Z" fill="#1F2022"/>
</svg>
