<svg width="24" height="25" viewBox="0 0 24 25" fill="none" xmlns="http://www.w3.org/2000/svg">
<path d="M12 17C13.1931 16.9988 14.337 16.5243 15.1806 15.6806C16.0243 14.837 16.4988 13.6931 16.5 12.5V6.5C16.5 5.30653 16.0259 4.16193 15.182 3.31802C14.3381 2.47411 13.1935 2 12 2C10.8065 2 9.66193 2.47411 8.81802 3.31802C7.97411 4.16193 7.5 5.30653 7.5 6.5V12.5C7.50124 13.6931 7.97575 14.837 8.81939 15.6806C9.66303 16.5243 10.8069 16.9988 12 17ZM9 6.5C9 5.70435 9.31607 4.94129 9.87868 4.37868C10.4413 3.81607 11.2044 3.5 12 3.5C12.7956 3.5 13.5587 3.81607 14.1213 4.37868C14.6839 4.94129 15 5.70435 15 6.5V12.5C15 13.2956 14.6839 14.0587 14.1213 14.6213C13.5587 15.1839 12.7956 15.5 12 15.5C11.2044 15.5 10.4413 15.1839 9.87868 14.6213C9.31607 14.0587 9 13.2956 9 12.5V6.5ZM12.75 19.9625V23C12.75 23.1989 12.671 23.3897 12.5303 23.5303C12.3897 23.671 12.1989 23.75 12 23.75C11.8011 23.75 11.6103 23.671 11.4697 23.5303C11.329 23.3897 11.25 23.1989 11.25 23V19.9625C9.40091 19.7743 7.68728 18.9072 6.44048 17.5288C5.19368 16.1504 4.50228 14.3586 4.5 12.5C4.5 12.3011 4.57902 12.1103 4.71967 11.9697C4.86032 11.829 5.05109 11.75 5.25 11.75C5.44891 11.75 5.63968 11.829 5.78033 11.9697C5.92098 12.1103 6 12.3011 6 12.5C6 14.0913 6.63214 15.6174 7.75736 16.7426C8.88258 17.8679 10.4087 18.5 12 18.5C13.5913 18.5 15.1174 17.8679 16.2426 16.7426C17.3679 15.6174 18 14.0913 18 12.5C18 12.3011 18.079 12.1103 18.2197 11.9697C18.3603 11.829 18.5511 11.75 18.75 11.75C18.9489 11.75 19.1397 11.829 19.2803 11.9697C19.421 12.1103 19.5 12.3011 19.5 12.5C19.4977 14.3586 18.8063 16.1504 17.5595 17.5288C16.3127 18.9072 14.5991 19.7743 12.75 19.9625Z" fill="#5B626B"/>
</svg>
