<svg width="24" height="24" viewBox="0 0 24 24" fill="none" xmlns="http://www.w3.org/2000/svg">
<path d="M20.0548 20.4956L5.05481 3.99564C4.92034 3.85119 4.73435 3.76557 4.53717 3.75733C4.33999 3.74909 4.1475 3.8189 4.00145 3.95163C3.8554 4.08436 3.76755 4.26931 3.75694 4.46638C3.74634 4.66345 3.81384 4.85676 3.94481 5.00439L7.49981 8.91471V12C7.49963 12.764 7.69397 13.5155 8.0645 14.1836C8.43504 14.8517 8.96958 15.4145 9.61775 15.8189C10.2659 16.2233 11.0064 16.456 11.7694 16.4952C12.5324 16.5343 13.2927 16.3785 13.9789 16.0425L15.0195 17.1863C14.1036 17.7222 13.061 18.0031 11.9998 18C10.409 17.9983 8.88393 17.3656 7.75909 16.2407C6.63425 15.1159 6.00155 13.5908 5.99981 12C5.99981 11.8011 5.92079 11.6103 5.78014 11.4697C5.63949 11.329 5.44872 11.25 5.24981 11.25C5.0509 11.25 4.86013 11.329 4.71948 11.4697C4.57883 11.6103 4.49981 11.8011 4.49981 12C4.5021 13.8587 5.19349 15.6504 6.44029 17.0288C7.68709 18.4072 9.40073 19.2744 11.2498 19.4625V22.5C11.2498 22.6989 11.3288 22.8897 11.4695 23.0303C11.6101 23.171 11.8009 23.25 11.9998 23.25C12.1987 23.25 12.3895 23.171 12.5301 23.0303C12.6708 22.8897 12.7498 22.6989 12.7498 22.5V19.4616C13.9243 19.3483 15.0545 18.9555 16.0461 18.316L18.9448 21.5035C19.0107 21.5777 19.0906 21.6381 19.18 21.6813C19.2694 21.7244 19.3665 21.7493 19.4656 21.7547C19.5647 21.76 19.6639 21.7456 19.7574 21.7123C19.8509 21.679 19.9368 21.6275 20.0103 21.5608C20.0837 21.494 20.1432 21.4134 20.1852 21.3235C20.2273 21.2336 20.2511 21.1362 20.2552 21.037C20.2593 20.9379 20.2438 20.8389 20.2094 20.7458C20.175 20.6527 20.1224 20.5674 20.0548 20.4947V20.4956ZM11.9998 15C11.2042 15 10.4411 14.6839 9.87849 14.1213C9.31588 13.5587 8.99981 12.7957 8.99981 12V10.5647L12.9054 14.8603C12.6125 14.953 12.3071 15.0001 11.9998 15ZM17.3923 14.6335C17.7946 13.814 18.0025 12.9129 17.9998 12C17.9998 11.8011 18.0788 11.6103 18.2195 11.4697C18.3601 11.329 18.5509 11.25 18.7498 11.25C18.9487 11.25 19.1395 11.329 19.2801 11.4697C19.4208 11.6103 19.4998 11.8011 19.4998 12C19.5029 13.1414 19.2428 14.2681 18.7395 15.2925C18.6779 15.4188 18.582 15.5252 18.4628 15.5996C18.3436 15.674 18.2059 15.7135 18.0654 15.7135C17.9513 15.7136 17.8386 15.6873 17.7364 15.6366C17.5577 15.5492 17.4212 15.3944 17.3566 15.2063C17.2921 15.0181 17.3049 14.8121 17.3923 14.6335ZM7.87481 4.20658C8.28787 3.25916 9.01447 2.4828 9.9325 2.00799C10.8505 1.53317 11.904 1.38884 12.9159 1.59925C13.9278 1.80966 14.8365 2.36199 15.4891 3.1634C16.1418 3.96482 16.4987 4.96647 16.4998 6.00002V12C16.4997 12.1566 16.4915 12.313 16.4754 12.4688C16.4561 12.6539 16.3687 12.8252 16.23 12.9495C16.0914 13.0737 15.9116 13.142 15.7254 13.141C15.6992 13.1423 15.6729 13.1423 15.6467 13.141C15.4489 13.1202 15.2675 13.0217 15.1423 12.8671C15.0171 12.7126 14.9585 12.5147 14.9792 12.3169C14.9895 12.2138 14.9951 12.1069 14.9951 12.0019V6.00002C14.9931 5.31191 14.7547 4.64539 14.3197 4.11221C13.8847 3.57902 13.2796 3.21158 12.6059 3.07148C11.9322 2.93138 11.2309 3.02713 10.6194 3.34269C10.0079 3.65825 9.52346 4.17443 9.24731 4.80471C9.21226 4.90089 9.15788 4.98888 9.08753 5.06325C9.01719 5.13762 8.93236 5.19681 8.83828 5.23716C8.74419 5.27751 8.64285 5.29817 8.54047 5.29788C8.4381 5.29758 8.33688 5.27632 8.24303 5.23543C8.14918 5.19453 8.0647 5.13485 7.99479 5.06007C7.92488 4.98529 7.87101 4.89698 7.83652 4.8006C7.80202 4.70422 7.78762 4.60179 7.79421 4.49963C7.8008 4.39747 7.82823 4.29774 7.87481 4.20658Z" fill="#1F2022"/>
</svg>
