<svg width="21" height="20" viewBox="0 0 21 20" fill="none" xmlns="http://www.w3.org/2000/svg">
<path d="M11.75 12.3187C12.7297 11.7085 13.4841 10.7957 13.8989 9.7186C14.3138 8.64146 14.3665 7.45852 14.0492 6.34874C13.7318 5.23897 13.0617 4.26273 12.1401 3.56775C11.2185 2.87276 10.0957 2.49683 8.94139 2.49683C7.78713 2.49683 6.66427 2.87276 5.7427 3.56775C4.82112 4.26273 4.15096 5.23897 3.83362 6.34874C3.51627 7.45852 3.56901 8.64146 3.98384 9.7186C4.39867 10.7957 5.15303 11.7085 6.1328 12.3187C4.51952 12.8468 3.06795 13.8335 1.90077 15.2226C1.84608 15.2851 1.80441 15.358 1.77819 15.4368C1.75197 15.5156 1.74173 15.5989 1.74807 15.6817C1.7544 15.7645 1.77719 15.8453 1.8151 15.9192C1.853 15.9931 1.90527 16.0588 1.96883 16.1122C2.03239 16.1657 2.10598 16.206 2.1853 16.2307C2.26461 16.2555 2.34806 16.2641 2.43075 16.2562C2.51345 16.2483 2.59374 16.224 2.66693 16.1847C2.74012 16.1454 2.80474 16.0919 2.85702 16.0273C4.42577 14.1554 6.5867 13.125 8.93749 13.125C11.2883 13.125 13.4492 14.1554 15.0211 16.0273C15.1278 16.1543 15.2806 16.2337 15.4458 16.2481C15.6111 16.2624 15.7753 16.2106 15.9023 16.1039C16.0293 15.9971 16.1088 15.8444 16.1231 15.6791C16.1375 15.5138 16.0856 15.3496 15.9789 15.2226C14.8109 13.8335 13.3594 12.8468 11.75 12.3187ZM4.87499 7.81245C4.87499 7.00896 5.11325 6.22352 5.55964 5.55545C6.00603 4.88737 6.64051 4.36667 7.38283 4.05919C8.12516 3.75171 8.94199 3.67126 9.73004 3.82801C10.5181 3.98476 11.242 4.37168 11.8101 4.93983C12.3783 5.50798 12.7652 6.23185 12.9219 7.0199C13.0787 7.80794 12.9982 8.62478 12.6907 9.3671C12.3833 10.1094 11.8626 10.7439 11.1945 11.1903C10.5264 11.6367 9.74097 11.875 8.93749 11.875C7.86042 11.8737 6.82783 11.4453 6.06623 10.6837C5.30464 9.9221 4.87623 8.88951 4.87499 7.81245ZM20.207 11.1773L19.843 10.9671C19.8857 10.741 19.8857 10.5089 19.843 10.2828L20.207 10.0726C20.2781 10.0316 20.3404 9.97693 20.3904 9.91181C20.4404 9.84668 20.4771 9.77235 20.4983 9.69306C20.5196 9.61377 20.525 9.53107 20.5143 9.44968C20.5036 9.36828 20.477 9.2898 20.4359 9.2187C20.3949 9.1476 20.3402 9.08528 20.2751 9.0353C20.21 8.98532 20.1357 8.94865 20.0564 8.9274C19.9771 8.90614 19.8944 8.90071 19.813 8.91142C19.7316 8.92212 19.6531 8.94876 19.582 8.98979L19.2172 9.20073C19.0426 9.05093 18.8418 8.93466 18.625 8.85776V8.43745C18.625 8.27169 18.5591 8.11272 18.4419 7.99551C18.3247 7.8783 18.1657 7.81245 18 7.81245C17.8342 7.81245 17.6753 7.8783 17.558 7.99551C17.4408 8.11272 17.375 8.27169 17.375 8.43745V8.85776C17.1582 8.93466 16.9574 9.05093 16.7828 9.20073L16.418 8.98979C16.3469 8.94876 16.2684 8.92212 16.187 8.91142C16.1056 8.90071 16.0229 8.90614 15.9436 8.9274C15.8643 8.94865 15.79 8.98532 15.7248 9.0353C15.6597 9.08528 15.6051 9.1476 15.564 9.2187C15.523 9.2898 15.4964 9.36828 15.4857 9.44968C15.475 9.53107 15.4804 9.61377 15.5017 9.69306C15.5229 9.77235 15.5596 9.84668 15.6096 9.91181C15.6595 9.97693 15.7219 10.0316 15.793 10.0726L16.157 10.2828C16.1143 10.5089 16.1143 10.741 16.157 10.9671L15.793 11.1773C15.7219 11.2183 15.6595 11.273 15.6096 11.3381C15.5596 11.4032 15.5229 11.4775 15.5017 11.5568C15.4804 11.6361 15.475 11.7188 15.4857 11.8002C15.4964 11.8816 15.523 11.9601 15.564 12.0312C15.6051 12.1023 15.6597 12.1646 15.7248 12.2146C15.79 12.2646 15.8643 12.3012 15.9436 12.3225C16.0229 12.3438 16.1056 12.3492 16.187 12.3385C16.2684 12.3278 16.3469 12.3011 16.418 12.2601L16.7828 12.0492C16.9574 12.199 17.1582 12.3152 17.375 12.3921V12.8125C17.375 12.9782 17.4408 13.1372 17.558 13.2544C17.6753 13.3716 17.8342 13.4375 18 13.4375C18.1657 13.4375 18.3247 13.3716 18.4419 13.2544C18.5591 13.1372 18.625 12.9782 18.625 12.8125V12.3921C18.8418 12.3152 19.0426 12.199 19.2172 12.0492L19.582 12.2601C19.6769 12.3152 19.7848 12.344 19.8945 12.3437C20.0321 12.3438 20.1659 12.2984 20.2751 12.2146C20.3844 12.1309 20.4629 12.0134 20.4985 11.8804C20.5341 11.7475 20.5248 11.6065 20.4721 11.4794C20.4194 11.3522 20.3262 11.2461 20.207 11.1773ZM17.375 10.625C17.375 10.5013 17.4116 10.3805 17.4803 10.2777C17.549 10.1749 17.6466 10.0948 17.7608 10.0475C17.875 10.0002 18.0007 9.98784 18.1219 10.012C18.2432 10.0361 18.3545 10.0956 18.4419 10.183C18.5293 10.2704 18.5889 10.3818 18.613 10.503C18.6371 10.6243 18.6247 10.7499 18.5774 10.8641C18.5301 10.9783 18.45 11.0759 18.3472 11.1446C18.2444 11.2133 18.1236 11.25 18 11.25C17.8342 11.25 17.6753 11.1841 17.558 11.0669C17.4408 10.9497 17.375 10.7907 17.375 10.625Z" fill="#1F2022"/>
</svg>
