<svg width="26" height="24" viewBox="0 0 26 24" fill="none" xmlns="http://www.w3.org/2000/svg">
<path d="M11.5 10C11.5 9.70333 11.588 9.41332 11.7528 9.16665C11.9176 8.91997 12.1519 8.72771 12.426 8.61418C12.7001 8.50065 13.0017 8.47094 13.2926 8.52882C13.5836 8.5867 13.8509 8.72956 14.0607 8.93934C14.2704 9.14912 14.4133 9.41639 14.4712 9.70736C14.5291 9.99834 14.4993 10.2999 14.3858 10.574C14.2723 10.8481 14.08 11.0824 13.8334 11.2472C13.5867 11.412 13.2967 11.5 13 11.5C12.6022 11.5 12.2206 11.342 11.9393 11.0607C11.658 10.7794 11.5 10.3978 11.5 10ZM7.5 11.5C7.79667 11.5 8.08668 11.412 8.33335 11.2472C8.58003 11.0824 8.77229 10.8481 8.88582 10.574C8.99935 10.2999 9.02906 9.99834 8.97118 9.70736C8.9133 9.41639 8.77044 9.14912 8.56066 8.93934C8.35088 8.72956 8.08361 8.5867 7.79264 8.52882C7.50166 8.47094 7.20006 8.50065 6.92597 8.61418C6.65189 8.72771 6.41762 8.91997 6.2528 9.16665C6.08797 9.41332 6 9.70333 6 10C6 10.3978 6.15804 10.7794 6.43934 11.0607C6.72064 11.342 7.10218 11.5 7.5 11.5ZM18.5 11.5C18.7967 11.5 19.0867 11.412 19.3334 11.2472C19.58 11.0824 19.7723 10.8481 19.8858 10.574C19.9993 10.2999 20.0291 9.99834 19.9712 9.70736C19.9133 9.41639 19.7704 9.14912 19.5607 8.93934C19.3509 8.72956 19.0836 8.5867 18.7926 8.52882C18.5017 8.47094 18.2001 8.50065 17.926 8.61418C17.6519 8.72771 17.4176 8.91997 17.2528 9.16665C17.088 9.41332 17 9.70333 17 10C17 10.3978 17.158 10.7794 17.4393 11.0607C17.7206 11.342 18.1022 11.5 18.5 11.5ZM26 2V18C26 18.5304 25.7893 19.0391 25.4142 19.4142C25.0391 19.7893 24.5304 20 24 20H16.4463L14.7362 22.9925C14.5613 23.2985 14.3086 23.5529 14.0036 23.7297C13.6987 23.9066 13.3525 23.9998 13 23.9998C12.6475 23.9998 12.3013 23.9066 11.9964 23.7297C11.6914 23.5529 11.4387 23.2985 11.2638 22.9925L9.55375 20H2C1.46957 20 0.960859 19.7893 0.585786 19.4142C0.210714 19.0391 0 18.5304 0 18V2C0 1.46957 0.210714 0.960859 0.585786 0.585786C0.960859 0.210714 1.46957 0 2 0H24C24.5304 0 25.0391 0.210714 25.4142 0.585786C25.7893 0.960859 26 1.46957 26 2ZM24 2H2V18H10.1337C10.3108 17.9984 10.4851 18.0439 10.6388 18.1317C10.7926 18.2196 10.9202 18.3467 11.0087 18.5L13.0088 22L15.0088 18.5C15.0973 18.3467 15.2249 18.2196 15.3787 18.1317C15.5324 18.0439 15.7067 17.9984 15.8838 18H24V2Z" fill="#1F2022"/>
</svg>
